<!-- Generator: Adobe Illustrator 19.1.0, SVG Export Plug-In  -->
<svg version="1.1"
	 xmlns="http://www.w3.org/2000/svg" xmlns:xlink="http://www.w3.org/1999/xlink" xmlns:a="http://ns.adobe.com/AdobeSVGViewerExtensions/3.0/"
	 x="0px" y="0px" width="200px" height="59.2px" viewBox="0 0 200 59.2" style="enable-background:new 0 0 200 59.2;"
	 xml:space="preserve">
<style type="text/css">
	.st0{fill:#ED1C24;}
	.st1{fill:#39B54A;}
	.st2{fill:#00BDF2;}
	.st3{fill:#2E3192;}
	.st4{fill:#020000;}
	.st5{fill:#EC008C;}
	.st6{fill:#FFF200;}
	.st7{fill:#BA141A;}
	.st8{fill:#F26522;}
	.st9{fill:#8DC63F;}
	.st10{fill:#00A651;}
	.st11{fill:#0054A6;}
	.st12{fill:#232176;}
	.st13{fill:#0072BC;}
	.st14{fill:#BD1A8D;}
	.st15{fill:#F7941E;}
	.st16{fill:#FFC20E;}
	.st17{fill:#92278F;}
	.st18{fill:#F067A6;}
	.st19{fill:#FFF45F;}
	.st20{fill:#008FD5;}
	.st21{fill:#00AEEF;}
</style>
<defs>
</defs>
<g>
	<g>
		<rect x="68.5" y="19.5" width="9.7" height="29.1"/>
		<polygon points="68.5,9.7 78.3,9.7 78.3,0 68.5,0 		"/>
		<polygon points="136.7,48.6 165.9,48.6 165.9,39 146.4,39 146.4,29.2 156.2,29.2 156.2,19.5 146.4,19.5 146.4,9.7 165.9,9.7 
			165.9,0 136.7,0 		"/>
		<polygon points="180.5,39 180.5,0 170.8,0 170.8,48.6 200,48.6 200,39 		"/>
		<path d="M49,0H24.7v9.7H0.4v9.7h23.8l-24.1,25L0,44.5v14.7l24.7-24.7v14h9.7V29.2H49c8.1,0,14.6-6.5,14.6-14.6
			C63.6,6.5,57.1,0,49,0z M34.4,9.7L34.4,9.7L34.4,9.7L34.4,9.7L34.4,9.7L34.4,9.7z M49,19.5h-9.2h-0.5h-0.5L24.7,33.5l-24,23.9
			V44.8l24-24.8l0.3-0.3l10-10h14.1h0c0.2,0,0.3,0,0.5,0c2.5,0.2,4.4,2.3,4.4,4.8C53.9,17.3,51.7,19.5,49,19.5z"/>
	</g>
</g>
<g>
	<g>
		<polygon class="st0" points="100.5,24.4 83.1,41.9 83.1,48.8 90,48.8 107.5,31.4 		"/>
		<polygon class="st1" points="107.5,31.4 124.9,48.8 131.9,48.8 131.9,41.9 114.5,24.4 		"/>
		<polygon class="st2" points="107.5,17.4 90,0 83.1,0 83.1,7 100.5,24.4 		"/>
		<polygon class="st3" points="131.9,7 131.9,0 124.9,0 107.5,17.4 114.5,24.4 		"/>
	</g>
	<g>
		<polygon class="st4" points="104,14 97,14 97,20.9 100.5,24.4 107.5,17.4 		"/>
		<g>
			<polygon class="st5" points="97,7 90,7 90,14 93.5,17.4 93.5,10.5 100.5,10.5 			"/>
			<polygon class="st6" points="100.5,10.5 93.5,10.5 93.5,17.4 97,20.9 97,14 104,14 			"/>
		</g>
		<polygon class="st2" points="90,0 83.1,0 83.1,7 90,14 90,7 97,7 		"/>
	</g>
	<g>
		<g>
			<polygon class="st7" points="93.5,31.4 93.5,45.4 107.5,31.4 			"/>
			<polygon class="st8" points="83.1,45.4 83.1,48.8 90,48.8 93.5,45.4 			"/>
			<polygon class="st0" points="100.5,24.4 93.5,31.4 107.5,31.4 			"/>
			<polygon class="st0" points="83.1,41.9 83.1,45.4 93.5,45.4 93.5,31.4 			"/>
		</g>
		<g>
			<polygon class="st9" points="128.4,38.4 128.4,48.8 131.9,48.8 131.9,41.9 			"/>
			<polygon class="st10" points="121.4,31.4 121.4,45.4 124.9,48.8 128.4,48.8 128.4,38.4 			"/>
			<polygon class="st1" points="114.5,24.4 107.5,31.4 121.4,31.4 			"/>
			<polygon class="st1" points="107.5,31.4 121.4,45.4 121.4,31.4 			"/>
		</g>
		<g>
			<polygon class="st11" points="121.4,3.5 128.4,10.5 131.9,7 131.9,3.5 			"/>
			<polygon class="st3" points="121.4,3.5 114.5,10.5 128.4,10.5 			"/>
			<polygon class="st3" points="107.5,17.4 114.5,24.4 121.4,17.4 			"/>
			<polygon class="st12" points="114.5,10.5 107.5,17.4 121.4,17.4 128.4,10.5 			"/>
			<polygon class="st13" points="124.9,0 121.4,3.5 131.9,3.5 131.9,0 			"/>
		</g>
		<g>
			<polygon points="97,14 97,17.4 100.5,20.9 100.5,17.4 			"/>
			<polygon points="100.5,14 97,14 100.5,17.4 104,17.4 			"/>
			<polygon points="104,14 100.5,14 104,17.4 107.5,17.4 			"/>
			<polygon class="st4" points="100.5,17.4 100.5,20.9 97,17.4 97,20.9 100.5,24.4 107.5,17.4 			"/>
			<polygon class="st14" points="90,7 90,10.5 93.5,14 93.5,10.5 			"/>
			<polygon class="st15" points="93.5,14 93.5,17.4 97,20.9 97,17.4 			"/>
			<polygon class="st16" points="93.5,10.5 93.5,14 97,17.4 97,14 			"/>
			<polygon class="st17" points="90,10.5 90,14 93.5,17.4 93.5,14 			"/>
			<polygon class="st18" points="93.5,7 90,7 93.5,10.5 97,10.5 			"/>
			<polygon class="st6" points="100.5,10.5 97,10.5 100.5,14 104,14 			"/>
			<polygon class="st5" points="97,7 93.5,7 97,10.5 100.5,10.5 			"/>
			<polygon class="st19" points="97,10.5 93.5,10.5 97,14 100.5,14 			"/>
			<polygon class="st20" points="83.1,0 83.1,7 86.6,7 86.6,3.5 			"/>
			<polygon class="st13" points="86.6,3.5 86.6,7 90,10.5 90,7 			"/>
			<polygon class="st21" points="90,0 90,3.5 93.5,7 97,7 			"/>
			<polygon class="st21" points="86.6,7 83.1,7 90,14 90,10.5 			"/>
			<polygon class="st2" points="90,3.5 90,0 83.1,0 90,7 93.5,7 			"/>
		</g>
	</g>
</g>
</svg>
