<!-- Generator: Adobe Illustrator 19.1.0, SVG Export Plug-In  -->
<svg version="1.1"
	 xmlns="http://www.w3.org/2000/svg" xmlns:xlink="http://www.w3.org/1999/xlink" xmlns:a="http://ns.adobe.com/AdobeSVGViewerExtensions/3.0/"
	 x="0px" y="0px" width="48.8px" height="48.8px" viewBox="0 0 48.8 48.8" style="enable-background:new 0 0 48.8 48.8;"
	 xml:space="preserve">
<style type="text/css">
	.st0{fill:#ED1C24;}
	.st1{fill:#39B54A;}
	.st2{fill:#00BDF2;}
	.st3{fill:#2E3192;}
	.st4{fill:#020000;}
	.st5{fill:#EC008C;}
	.st6{fill:#FFF200;}
	.st7{fill:#BA141A;}
	.st8{fill:#F26522;}
	.st9{fill:#8DC63F;}
	.st10{fill:#00A651;}
	.st11{fill:#0054A6;}
	.st12{fill:#232176;}
	.st13{fill:#0072BC;}
	.st14{fill:#BD1A8D;}
	.st15{fill:#F7941E;}
	.st16{fill:#FFC20E;}
	.st17{fill:#92278F;}
	.st18{fill:#F067A6;}
	.st19{fill:#FFF45F;}
	.st20{fill:#008FD5;}
	.st21{fill:#00AEEF;}
</style>
<defs>
</defs>
<g>
	<g>
		<polygon class="st0" points="17.4,24.4 0,41.9 0,48.8 7,48.8 24.4,31.4 		"/>
		<polygon class="st1" points="24.4,31.4 41.9,48.8 48.8,48.8 48.8,41.9 31.4,24.4 		"/>
		<polygon class="st2" points="24.4,17.4 7,0 0,0 0,7 17.4,24.4 		"/>
		<polygon class="st3" points="48.8,7 48.8,0 41.9,0 24.4,17.4 31.4,24.4 		"/>
	</g>
	<g>
		<polygon class="st4" points="20.9,14 14,14 14,20.9 17.4,24.4 24.4,17.4 		"/>
		<g>
			<polygon class="st5" points="14,7 7,7 7,14 10.5,17.4 10.5,10.5 17.4,10.5 			"/>
			<polygon class="st6" points="17.4,10.5 10.5,10.5 10.5,17.4 14,20.9 14,14 20.9,14 			"/>
		</g>
		<polygon class="st2" points="7,0 0,0 0,7 7,14 7,7 14,7 		"/>
	</g>
	<g>
		<g>
			<polygon class="st7" points="10.5,31.4 10.5,45.4 24.4,31.4 			"/>
			<polygon class="st8" points="0,45.4 0,48.8 7,48.8 10.5,45.4 			"/>
			<polygon class="st0" points="17.4,24.4 10.5,31.4 24.4,31.4 			"/>
			<polygon class="st0" points="0,41.9 0,45.4 10.5,45.4 10.5,31.4 			"/>
		</g>
		<g>
			<polygon class="st9" points="45.4,38.4 45.4,48.8 48.8,48.8 48.8,41.9 			"/>
			<polygon class="st10" points="38.4,31.4 38.4,45.4 41.9,48.8 45.4,48.8 45.4,38.4 			"/>
			<polygon class="st1" points="31.4,24.4 24.4,31.4 38.4,31.4 			"/>
			<polygon class="st1" points="24.4,31.4 38.4,45.4 38.4,31.4 			"/>
		</g>
		<g>
			<polygon class="st11" points="38.4,3.5 45.4,10.5 48.8,7 48.8,3.5 			"/>
			<polygon class="st3" points="38.4,3.5 31.4,10.5 45.4,10.5 			"/>
			<polygon class="st3" points="24.4,17.4 31.4,24.4 38.4,17.4 			"/>
			<polygon class="st12" points="31.4,10.5 24.4,17.4 38.4,17.4 45.4,10.5 			"/>
			<polygon class="st13" points="41.9,0 38.4,3.5 48.8,3.5 48.8,0 			"/>
		</g>
		<g>
			<polygon points="14,14 14,17.4 17.4,20.9 17.4,17.4 			"/>
			<polygon points="17.4,14 14,14 17.4,17.4 20.9,17.4 			"/>
			<polygon points="20.9,14 17.4,14 20.9,17.4 24.4,17.4 			"/>
			<polygon class="st4" points="17.4,17.4 17.4,20.9 14,17.4 14,20.9 17.4,24.4 24.4,17.4 			"/>
			<polygon class="st14" points="7,7 7,10.5 10.5,14 10.5,10.5 			"/>
			<polygon class="st15" points="10.5,14 10.5,17.4 14,20.9 14,17.4 			"/>
			<polygon class="st16" points="10.5,10.5 10.5,14 14,17.4 14,14 			"/>
			<polygon class="st17" points="7,10.5 7,14 10.5,17.4 10.5,14 			"/>
			<polygon class="st18" points="10.5,7 7,7 10.5,10.5 14,10.5 			"/>
			<polygon class="st6" points="17.4,10.5 14,10.5 17.4,14 20.9,14 			"/>
			<polygon class="st5" points="14,7 10.5,7 14,10.5 17.4,10.5 			"/>
			<polygon class="st19" points="14,10.5 10.5,10.5 14,14 17.4,14 			"/>
			<polygon class="st20" points="0,0 0,7 3.5,7 3.5,3.5 			"/>
			<polygon class="st13" points="3.5,3.5 3.5,7 7,10.5 7,7 			"/>
			<polygon class="st21" points="7,0 7,3.5 10.5,7 14,7 			"/>
			<polygon class="st21" points="3.5,7 0,7 7,14 7,10.5 			"/>
			<polygon class="st2" points="7,3.5 7,0 0,0 7,7 10.5,7 			"/>
		</g>
	</g>
</g>
</svg>
