<svg id="Layer_1" data-name="Layer 1" xmlns="http://www.w3.org/2000/svg" viewBox="0 0 850 250"><defs><style>.cls-1{fill:#585857;}.cls-2{fill:#3d3d3b;}</style></defs><title>AHnStyle_2x</title><path class="cls-1" d="M804.45,25H625V225H804.45c11,0,20.55-8.5,20.55-19.54v-160A20.87,20.87,0,0,0,804.45,25ZM661,193h-4V179H639v14h-4V161h4v14h18V161h4v32Zm34-15.81c0,4.62-.55,8.19-2.4,11-2,3.08-6.19,5-11.12,5s-8.63-1.94-10.61-5c-1.85-2.86-1.88-6.56-1.88-10.52V161h4v16.23c0,3.92.26,6.38,1.23,8.23,1.1,2.07,3.34,3.83,7.52,3.83,3.87,0,6.42-1.5,7.65-3.83a16.88,16.88,0,0,0,1.6-8.05V161h4v16.19Zm14.17,16c-3.08,0-6.17-.84-10.17-2.51v-4.58c4,2.29,7.41,3.26,10.22,3.26,3.79,0,7-1.72,7-5.19,0-4.09-3.71-4.8-7.89-6-4.49-1.28-8.81-3.12-8.81-8.93,0-5.63,4.07-8.89,10.27-8.89,3,0,7.18.75,9.18,2.38v4.4c-4-2-6.54-2.95-9.27-2.95-3.56,0-6.14,1.54-6.14,4.8,0,4,3.72,4.62,7.59,5.72,4.62,1.32,8.92,3.17,8.92,9.24C720.1,189.73,715.55,193.16,709.17,193.16Zm25.34,0c-3.08,0-7.52-.84-9.52-2.51v-4.58c2,2.29,6.73,3.26,9.54,3.26,3.79,0,6.33-1.72,6.33-5.19,0-4.09-3.75-4.8-7.93-6-4.49-1.28-8.89-3.12-8.89-8.93,0-5.63,3.9-8.89,10.1-8.89,3,0,6.84.75,8.84,2.38v4.4c-2-2-6.2-2.95-8.93-2.95-3.56,0-5.8,1.54-5.8,4.8,0,4,3.72,4.62,7.59,5.72,4.62,1.32,9.25,3.17,9.25,9.24C745.12,189.73,740.9,193.16,734.52,193.16ZM769,165H755v10h14v4H755v10h14v4H751V161h18v4Zm10,28h-4V161h4v32Zm34,0h-4.16L795.4,175.15c-1.85-2.42-3.8-5.14-5.6-7.65l-0.38.07c0,2.77-.42,6-0.42,9.09V193h-4V161h4.92l13.39,17.6c1.85,2.42,3.75,4.79,5.55,7.3l0.11,0c0-2.77,0-6,0-9V161h4v32Z"/><path class="cls-2" d="M531,129.12c-9,9-16.06,24.64-16.06,38.06,0,5.06,1.32,7,4,7,5.72,0,13.64-5.06,21.34-13,15.84-15.84,21.56-25.3,26.4-37.62-3.3-1.32-9.46-2.42-15.84-2.42A27.82,27.82,0,0,0,531,129.12Z"/><path class="cls-2" d="M92.34,143.86c26-.66,39.38-1.1,45.76-2.2,1.54-15.18,2.64-35.64,3.3-51.7C122,106.46,105.54,125.82,92.34,143.86Z"/><path class="cls-2" d="M478.43,127.8c0-4.18-2.42-7-7.92-7a18.11,18.11,0,0,0-11,4.62c-5.28,5.28-9.24,13.64-11.44,21.12,3.74,0,20-4,26.4-10.34C476.67,134,478.43,130.22,478.43,127.8Z"/><path class="cls-2" d="M587.39,110c-7.7,22-12.68,48.84-12.68,68a22.14,22.14,0,0,0,.15,4c-5.28,6.38-15.43,10.78-20.05,10.78a166.48,166.48,0,0,1,6.58-47.52c-13.42,15.62-47.31,48-59.85,48-4.18,0-6.39-3.52-6.39-11.66,0-12.32,8.58-34.32,23.54-47.74,20.68-18.7,34.32-21.56,52.58-21.56,8.14-22.66,17.22-43.78,25.36-59.4,2.08-3.34,4.37-4.28,8.37-4.57V25H45A20,20,0,0,0,25,45V205a20,20,0,0,0,20,20H605V64.78C599,78.86,592.15,96.26,587.39,110Zm-433,72.38c-4.4,5.5-17.16,13.2-23.1,13.2,2.86-15,5.5-36.74,6.6-50.6-2,.88-7.48,3.74-10.78,4.62-5.5,1.32-22.44,3.08-42.24,4.4-11,14.74-17.38,25.3-21.34,33.44-6.16,3.08-16.06,6.82-22.44,6.82,7.26-10.34,21.78-28.38,30.8-39.38-8.58.66-17.38,1.32-25.52,1.76,0-1.54,9.24-9.24,13.42-11.44,7.26-.66,13-0.44,21.34-1.32C108,113.5,128.86,90.62,137.44,80.94c1.32-1.54,3.52-5.28,3.74-6.6a49.14,49.14,0,0,1,21.12-5.28C160.1,100.74,157.24,156.18,154.38,182.36Zm107.36-6.16c-5.06,5.72-20.68,15.4-25.74,15.62,0-6.82,4-22,8.58-35.42,7.26-21.34,7.92-24,7.92-26.62,0-2.2-.44-4.4-3.08-4.4-4,0-18.48,5.72-31.68,19.36-9,9.24-15.4,24.2-19.8,38.5-7.48,6.38-18.26,9-21.34,9,7-24.64,13.86-44.88,22.66-71.06,6.38-19.36,18.26-53,27.94-68.42,3.3-2.42,12.32-6.16,16.94-6.16-7.26,13-16.28,37.62-24,60.06-5.28,15.4-9.46,29.26-13.64,42.68,24.2-24.2,52.36-39.16,62.48-39.16,2.42,0,3.74,2.2,3.74,4.84,0,12.32-14.52,40.48-14.52,53.46C258.22,172.68,258.88,174.88,261.74,176.2Zm148.5-33c-3.52,9.24-6.6,21.78-6.6,25.08,0,3.52.66,6.6,3.52,7.7-6.82,8.36-19.36,15.4-25.74,15.4,0-6.16,2.42-17.6,8.36-35.64,5.28-16.06,6.16-18.92,6.16-22,0-2-1.1-2.64-2.86-2.64-3.3,0-14.74,7.26-25.74,17.82-9.46,9.24-14.74,21.56-17.16,30.58-5.06,5.5-16.94,9.9-20,9.9,9.68-30.14,14.08-46.2,14.08-53.46,0-3.3-.88-4.84-2.64-4.84-2.2,0-8.58,2.86-16.5,10.78-10.78,10.78-17.6,22.22-22.66,36.08-7.26,6.6-18,11.66-21.12,11.66,9.9-29,14.52-48.84,15.62-64.24,3.52-4.4,15.62-11.88,20.24-11.88,0,5.06-2.42,21.56-6.6,36.74,16.06-16.28,38.28-34.76,51.7-34.76,2.2,0,3.08,2.2,3.08,4.62,0,5.72-.88,11-6.38,30.14,10.56-10.56,44.44-36.3,55.66-36.3,3.74,0,4.18.88,4.18,3.52C418.82,121.2,415.74,128.46,410.24,143.2Zm37.4,31.9c2,2.2,5.06,3.08,9,3.08,8.14,0,20.24-7.7,33.44-20.9,0,1.54,0,5.28-.44,6.6C476.23,177.3,452.25,192,436,192c-4.4,0-8.58-4-8.58-13.42,0-18.26,6.6-35.64,18.48-47.3C460.17,117,478,112,486.13,112c5.72,0,8.36,3.08,8.36,5.72,0,4.84-3.08,10.12-6.16,13-11,11-26.84,18.92-41.58,21.78A56.79,56.79,0,0,0,445,165.86C445,169.6,445.87,173.34,447.63,175.1Z"/></svg>